<svg id="Layer_1" data-name="Layer 1" xmlns="http://www.w3.org/2000/svg" viewBox="0 0 810.02 90.99"><defs><style>.cls-1{fill:#222;}</style></defs><path class="cls-1" d="M24.6,94.22q-3.93,0-5.58-1.17A5,5,0,0,1,17,90,18.2,18.2,0,0,1,16.53,86v-58A17.52,17.52,0,0,1,17,24.18a4.9,4.9,0,0,1,2.13-3Q20.78,20,24.71,20h22a27.39,27.39,0,0,1,9,1.59,26.11,26.11,0,0,1,8.39,4.89,24.73,24.73,0,0,1,6.16,8.18A26.65,26.65,0,0,1,72.6,46.21a28.68,28.68,0,0,1-1.32,8.66,24.72,24.72,0,0,1-4,7.65,25.26,25.26,0,0,1-6.58,5.94,28.51,28.51,0,0,1-9,3.67H32.78v14A17.45,17.45,0,0,1,32.35,90a4.93,4.93,0,0,1-2.12,3C29.09,93.83,27.22,94.22,24.6,94.22Zm8.18-38.13H47.54a8.62,8.62,0,0,0,3-.58,9.15,9.15,0,0,0,2.92-1.76,8.63,8.63,0,0,0,2.18-3.08,11.08,11.08,0,0,0,.85-4.56,10.49,10.49,0,0,0-1.27-5.31,8.82,8.82,0,0,0-3.51-3.45,10.6,10.6,0,0,0-5.2-1.23H32.78Zm36.64,36Q65.49,95,63.15,94.38t-4.88-4.2L39.57,63.42l18.16-2.34L71.44,80.73a14.47,14.47,0,0,1,2.28,4.36,4.11,4.11,0,0,1-.53,3.39A14.92,14.92,0,0,1,69.42,92.09Z" transform="translate(-16.53 -17.01)"/><path class="cls-1" d="M111.79,95.07a26.66,26.66,0,0,1-9.93-2,30.14,30.14,0,0,1-9-5.57,27.06,27.06,0,0,1-6.43-8.66,25.88,25.88,0,0,1-2.39-11.2A26.22,26.22,0,0,1,86.25,57,28.88,28.88,0,0,1,101,42.23a25.94,25.94,0,0,1,10.57-2.18,26.79,26.79,0,0,1,13.86,3.67,27.79,27.79,0,0,1,9.93,9.93,26.73,26.73,0,0,1,3.72,13.91,26.63,26.63,0,0,1-2.39,11.52,27.37,27.37,0,0,1-6.38,8.66,27.93,27.93,0,0,1-8.81,5.47A26.86,26.86,0,0,1,111.79,95.07Zm-.21-16a11.94,11.94,0,0,0,5.2-1.27,11.52,11.52,0,0,0,4.46-3.83,10.9,10.9,0,0,0,1.81-6.48,11.59,11.59,0,0,0-1.49-5.94,10.44,10.44,0,0,0-4.09-4,12.16,12.16,0,0,0-6-1.44,10.89,10.89,0,0,0-5.68,1.49,11.46,11.46,0,0,0-5.57,10A11.25,11.25,0,0,0,102,74a10.63,10.63,0,0,0,4.41,3.82A12.25,12.25,0,0,0,111.58,79Z" transform="translate(-16.53 -17.01)"/><path class="cls-1" d="M171.69,94.43a7.48,7.48,0,0,1-4.41-1.11,6.78,6.78,0,0,1-2.23-2.61c-.46-1-.86-1.84-1.22-2.55L149,51.1a14.54,14.54,0,0,1-.69-4.25,4.37,4.37,0,0,1,1.28-3,9.91,9.91,0,0,1,3.87-2.23c2.7-1.13,4.89-1.45,6.59-1s3,2,3.82,4.36l7.86,21.34,7-19.65a19.78,19.78,0,0,1,1.17-2.38A7.14,7.14,0,0,1,182.15,42a7.29,7.29,0,0,1,4.2-1.07A8,8,0,0,1,190.81,42a7.39,7.39,0,0,1,2.39,2.44,13.37,13.37,0,0,1,1.11,2.33l7,19.65,7.33-20q1.59-4,4-5.42t6.43.32a10.57,10.57,0,0,1,5.15,4q1.44,2.38-.26,5.9L209,88.16a24,24,0,0,1-1.17,2.66,6.92,6.92,0,0,1-2.23,2.55,7,7,0,0,1-4.14,1.06,8.11,8.11,0,0,1-4.3-1A6,6,0,0,1,194.84,91a27,27,0,0,1-1.27-3l-7.12-19.54-7,19.54c-.5,1.27-1,2.39-1.39,3.34A4.61,4.61,0,0,1,176,93.63,9,9,0,0,1,171.69,94.43Z" transform="translate(-16.53 -17.01)"/><path class="cls-1" d="M279.38,94.11q-3.93,0-5.84-1.38a3.82,3.82,0,0,1-1.81-3.4l1.07-1.8a12,12,0,0,1-2.45,2.6,17.54,17.54,0,0,1-4.72,2.76,18.37,18.37,0,0,1-7.06,1.22,21.25,21.25,0,0,1-9.3-2.12,25,25,0,0,1-7.8-5.9,29.93,29.93,0,0,1-5.42-8.55,25.54,25.54,0,0,1-2-10.09,24.93,24.93,0,0,1,2-9.92,28.45,28.45,0,0,1,5.47-8.4,26.65,26.65,0,0,1,7.81-5.78,20.74,20.74,0,0,1,9.24-2.13,17.81,17.81,0,0,1,6.69,1.12,18.33,18.33,0,0,1,4.62,2.6,14.4,14.4,0,0,1,2.81,2.87l-1-1.49a4.47,4.47,0,0,1,1.86-3.88q1.86-1.32,5.9-1.32,3.83,0,5.47,1.16a4.79,4.79,0,0,1,2,3.08,21,21,0,0,1,.38,4V86A20.3,20.3,0,0,1,287,90a4.61,4.61,0,0,1-2,3Q283.31,94.11,279.38,94.11ZM260.8,78.29a9.15,9.15,0,0,0,5.09-1.44,11.24,11.24,0,0,0,3.61-14.76,10.32,10.32,0,0,0-3.71-3.77,10,10,0,0,0-5.21-1.38,10.26,10.26,0,0,0-5.36,1.43,10.84,10.84,0,0,0-3.82,3.88A10.67,10.67,0,0,0,250,67.77,10,10,0,0,0,251.4,73a10.6,10.6,0,0,0,3.93,3.82A10.72,10.72,0,0,0,260.8,78.29Z" transform="translate(-16.53 -17.01)"/><path class="cls-1" d="M340.77,94.22q-3.82,0-5.53-1.17a4.73,4.73,0,0,1-2.07-3,20,20,0,0,1-.37-4v-58a18.76,18.76,0,0,1,.37-3.82,4.72,4.72,0,0,1,2.07-3Q337,20.09,341,20.09a18.72,18.72,0,0,1,4,.32,4.43,4.43,0,0,1,2,.9c.43.39.89.83,1.38,1.33l23.9,32.28h-1.59l24-32.28a7.6,7.6,0,0,1,1.7-1.49,6.67,6.67,0,0,1,2.18-.8,21.1,21.1,0,0,1,3.77-.26q3.83,0,5.52,1.17a4.91,4.91,0,0,1,2.12,3,17.47,17.47,0,0,1,.43,4v58a16.35,16.35,0,0,1-.43,3.83,4.91,4.91,0,0,1-2.12,3q-1.69,1.17-5.63,1.17t-5.52-1.17A4.92,4.92,0,0,1,394.61,90a18.2,18.2,0,0,1-.42-3.93V48.23L378.36,70.64c-.28.28-.67.73-1.16,1.33a6.6,6.6,0,0,1-2.08,1.59,8,8,0,0,1-3.66.69,8.09,8.09,0,0,1-3.61-.69A6.14,6.14,0,0,1,365.78,72l-1.22-1.48L348.84,48.23v38a16.35,16.35,0,0,1-.43,3.83,5,5,0,0,1-2.07,3C345.24,93.83,343.39,94.22,340.77,94.22Z" transform="translate(-16.53 -17.01)"/><path class="cls-1" d="M468.11,94.11q-3.93,0-5.85-1.38a3.81,3.81,0,0,1-1.8-3.4l1.06-1.8a11.87,11.87,0,0,1-2.44,2.6,17.77,17.77,0,0,1-4.73,2.76,18.37,18.37,0,0,1-7.06,1.22A21.17,21.17,0,0,1,438,92a25.16,25.16,0,0,1-7.81-5.9,30.15,30.15,0,0,1-5.42-8.55,25.71,25.71,0,0,1-2-10.09,25.1,25.1,0,0,1,2-9.92,28.65,28.65,0,0,1,5.47-8.4,26.78,26.78,0,0,1,7.81-5.78,20.74,20.74,0,0,1,9.24-2.13A17.73,17.73,0,0,1,454,42.34a18.33,18.33,0,0,1,4.62,2.6,13.86,13.86,0,0,1,2.81,2.87l-1-1.49a4.47,4.47,0,0,1,1.86-3.88q1.86-1.32,5.89-1.32,3.82,0,5.47,1.16a4.8,4.8,0,0,1,2,3.08,21,21,0,0,1,.37,4V86A20.3,20.3,0,0,1,475.7,90a4.63,4.63,0,0,1-2,3Q472,94.11,468.11,94.11ZM449.52,78.29a9.21,9.21,0,0,0,5.1-1.44,11.27,11.27,0,0,0,3.61-14.76,10.27,10.27,0,0,0-3.72-3.77,10,10,0,0,0-5.2-1.38,10.3,10.3,0,0,0-5.37,1.43,10.93,10.93,0,0,0-3.82,3.88,10.76,10.76,0,0,0-1.43,5.52A10.08,10.08,0,0,0,440.12,73a11,11,0,0,0,9.4,5.26Z" transform="translate(-16.53 -17.01)"/><path class="cls-1" d="M497.74,94.22q-3.93,0-5.58-1.12a4.55,4.55,0,0,1-2-3,20.16,20.16,0,0,1-.37-4V25A16.85,16.85,0,0,1,490.2,21a4.77,4.77,0,0,1,2.07-2.92Q493.91,17,497.84,17t5.58,1.17a4.79,4.79,0,0,1,2,3,20,20,0,0,1,.37,3.93V46.74a23.16,23.16,0,0,1,4.94-3.82,13.72,13.72,0,0,1,7.16-1.8,21.6,21.6,0,0,1,11.85,3.34,24.29,24.29,0,0,1,8.39,9.19A27.83,27.83,0,0,1,541.28,67V86.25a17.29,17.29,0,0,1-.42,3.93,4.83,4.83,0,0,1-2,2.92q-1.59,1.13-5.63,1.12-3.83,0-5.52-1.12a4.5,4.5,0,0,1-2.08-3,20.94,20.94,0,0,1-.37-4V66.92a11.84,11.84,0,0,0-1.06-5.25,8.15,8.15,0,0,0-3.13-3.45,9.47,9.47,0,0,0-5-1.28,10.51,10.51,0,0,0-6.85,2.39,8.71,8.71,0,0,0-3.34,5.79V86.25a17.27,17.27,0,0,1-.43,3.93,4.71,4.71,0,0,1-2.07,2.92Q501.66,94.23,497.74,94.22Z" transform="translate(-16.53 -17.01)"/><path class="cls-1" d="M562.41,94.22q-3.82,0-5.52-1.17a4.5,4.5,0,0,1-2-3,23,23,0,0,1-.32-3.93V49a18.82,18.82,0,0,1,.38-3.82A4.45,4.45,0,0,1,557,42.23q1.69-1.11,5.63-1.11c2.61,0,4.53.51,5.73,1.54s1.81,2.7,1.81,5l-1.38,1.17a8.55,8.55,0,0,1,1.27-1.81,20.25,20.25,0,0,1,2.76-2.65,17.37,17.37,0,0,1,4-2.39,12.12,12.12,0,0,1,4.94-1,18.7,18.7,0,0,1,6.32,1,16,16,0,0,1,5.1,3,18.64,18.64,0,0,1,4,4.94,27.78,27.78,0,0,1,3.61-4.14,19.36,19.36,0,0,1,5-3.4A14.81,14.81,0,0,1,612.22,41a17.53,17.53,0,0,1,10.57,3.13,19.15,19.15,0,0,1,6.53,9,39.58,39.58,0,0,1,2.23,14.12v19a17.54,17.54,0,0,1-.42,3.88,4.77,4.77,0,0,1-2.07,3q-1.65,1.13-5.58,1.12t-5.63-1.17a4.55,4.55,0,0,1-2-3,23.07,23.07,0,0,1-.31-3.87v-19a16.66,16.66,0,0,0-.8-5.47,7.73,7.73,0,0,0-2.28-3.51,5.88,5.88,0,0,0-3.83-1.22,6.68,6.68,0,0,0-6.69,4.57,16.22,16.22,0,0,0-.85,5.73v19a14.63,14.63,0,0,1-.53,4,5.07,5.07,0,0,1-2.28,3c-1.17.74-3.07,1.08-5.68,1s-4.25-.41-5.31-1.22a4.79,4.79,0,0,1-1.92-3.08,22.57,22.57,0,0,1-.32-3.77v-19a18.19,18.19,0,0,0-.74-5.53,7.06,7.06,0,0,0-2.23-3.5,6.17,6.17,0,0,0-3.93-1.17,6.67,6.67,0,0,0-4.35,1.38,7.93,7.93,0,0,0-2.5,3.66,15.66,15.66,0,0,0-.8,5.16V86.25a19.3,19.3,0,0,1-.37,3.93A4.5,4.5,0,0,1,568,93.1Q566.35,94.23,562.41,94.22Z" transform="translate(-16.53 -17.01)"/><path class="cls-1" d="M798,94.11A21.3,21.3,0,0,1,788.73,92,25,25,0,0,1,781,86.25a28.43,28.43,0,0,1-5.36-8.55,26.92,26.92,0,0,1-2-10.25,25.6,25.6,0,0,1,2-9.92,27.7,27.7,0,0,1,5.41-8.4,26.91,26.91,0,0,1,7.81-5.78A20.53,20.53,0,0,1,798,41.22,18.27,18.27,0,0,1,813.43,49a27.2,27.2,0,0,1,4,8.4,38.58,38.58,0,0,1,1.49,10,39.34,39.34,0,0,1-1.28,10.19,26,26,0,0,1-3.93,8.5,19.87,19.87,0,0,1-6.58,5.9A18.69,18.69,0,0,1,798,94.11Zm2.13-15.72A9.44,9.44,0,0,0,805.25,77,11.26,11.26,0,0,0,809,73.08a11,11,0,0,0,0-10.78,10.72,10.72,0,0,0-3.72-3.82A10,10,0,0,0,800,57.05a10.36,10.36,0,0,0-5.26,1.38A9.6,9.6,0,0,0,791,62.25a11.13,11.13,0,0,0-1.33,5.42,10.78,10.78,0,0,0,1.38,5.41A10.38,10.38,0,0,0,794.89,77,10.1,10.1,0,0,0,800.1,78.39Zm18.48,15.83a9.75,9.75,0,0,1-5.36-1.17,5.51,5.51,0,0,1-2.29-3.61V25.08a27,27,0,0,1,.27-3.88,4.37,4.37,0,0,1,1.86-3Q814.65,17,818.47,17q4,0,5.63,1.11a4.89,4.89,0,0,1,2,2.92,17.41,17.41,0,0,1,.42,3.93V86.15a19.47,19.47,0,0,1-.37,3.87,4.8,4.8,0,0,1-2,3Q822.51,94.22,818.58,94.22Z" transform="translate(-16.53 -17.01)"/><path class="cls-1" d="M652.77,37.47a3.78,3.78,0,0,1-2.62-6.53c.46-.44,11.44-10.65,25.84-3.45a3.8,3.8,0,0,1-3.4,6.79c-9.55-4.78-16.92,1.89-17.23,2.18A3.83,3.83,0,0,1,652.77,37.47Z" transform="translate(-16.53 -17.01)"/><path class="cls-1" d="M755,37.48a3.76,3.76,0,0,1-2.6-1c-.34-.31-7.71-7-17.24-2.17a3.79,3.79,0,0,1-3.39-6.79c14.39-7.2,25.38,3,25.84,3.45A3.79,3.79,0,0,1,755,37.48Z" transform="translate(-16.53 -17.01)"/><path class="cls-1" d="M702.19,108a24.36,24.36,0,0,1-14.12-4.47,3.79,3.79,0,0,1,4.57-6,16.73,16.73,0,0,0,19.11-.12,3.8,3.8,0,0,1,4.24,6.3A24.46,24.46,0,0,1,702.19,108Z" transform="translate(-16.53 -17.01)"/><path class="cls-1" d="M694.53,53.64a27.69,27.69,0,0,0-9.94-9.91,26.66,26.66,0,0,0-13.85-3.67,25.58,25.58,0,0,0-10.57,2.18,28.35,28.35,0,0,0-8.75,6,28,28,0,0,0-6,8.78,27.11,27.11,0,0,0,.21,21.87,27.1,27.1,0,0,0,6.42,8.65,30.17,30.17,0,0,0,9,5.58,26.42,26.42,0,0,0,19.65.11,27.94,27.94,0,0,0,8.83-5.49,27.61,27.61,0,0,0,6.37-8.65,26.67,26.67,0,0,0,2.38-11.53A26.76,26.76,0,0,0,694.53,53.64ZM674.3,85.45a11.61,11.61,0,1,1,11.61-11.6A11.61,11.61,0,0,1,674.3,85.45Z" transform="translate(-16.53 -17.01)"/><path class="cls-1" d="M759.42,53.64a27.79,27.79,0,0,0-9.92-9.91,26.74,26.74,0,0,0-13.88-3.67,25.48,25.48,0,0,0-10.54,2.18A28.63,28.63,0,0,0,710.31,57a27.38,27.38,0,0,0,.2,21.87,27.1,27.1,0,0,0,6.42,8.65,30.47,30.47,0,0,0,9,5.58,27,27,0,0,0,9.94,2,26.75,26.75,0,0,0,9.71-1.84,28.09,28.09,0,0,0,15.2-14.14,26.67,26.67,0,0,0,2.37-11.53A26.84,26.84,0,0,0,759.42,53.64ZM733.47,86.41a11.61,11.61,0,1,1,11.61-11.6A11.59,11.59,0,0,1,733.47,86.41Z" transform="translate(-16.53 -17.01)"/></svg>